<svg width="188" height="188" viewBox="0 0 188 188" fill="none" xmlns="http://www.w3.org/2000/svg">
<path d="M116.288 179C106.897 179 99.5078 177.689 94.1215 175.067C88.8733 172.582 85.2134 168.787 83.1417 163.68C81.0701 158.574 79.9652 152.225 79.8271 144.634C62.5633 142.564 49.4429 136.077 40.4657 125.174C31.4886 114.133 27 98.1925 27 77.3523C27 52.6477 32.6625 34.9128 43.9875 24.1477C55.3126 13.3826 71.8167 8 93.5 8C115.183 8 131.687 13.3826 143.012 24.1477C154.337 34.9128 160 52.6477 160 77.3523C160 97.7785 155.65 113.443 146.949 124.346C138.386 135.249 125.887 141.874 109.452 144.22C109.452 148.637 110.211 151.673 111.731 153.329C113.388 155.123 116.15 156.021 120.017 156.021C124.299 156.021 128.649 155.469 133.069 154.364V176.93C130.997 177.482 128.235 177.965 124.782 178.379C121.467 178.793 118.636 179 116.288 179ZM93.5 117.1C104.687 117.1 112.835 113.926 117.945 107.577C123.194 101.091 125.818 91.0157 125.818 77.3523C125.818 62.4467 123.194 51.9576 117.945 45.885C112.835 39.6743 104.687 36.569 93.5 36.569C82.175 36.569 73.8884 39.6743 68.6402 45.885C63.5301 51.9576 60.9751 62.4467 60.9751 77.3523C60.9751 91.0157 63.5301 101.091 68.6402 107.577C73.8884 113.926 82.175 117.1 93.5 117.1Z" fill="#FF7121"/>
</svg>
