<svg width="1919" height="663" viewBox="0 0 1919 663" fill="none" xmlns="http://www.w3.org/2000/svg">
<path d="M0 98.8601C211.66 97.7801 423.23 95.0601 635.06 95.9701C646.61 98.9301 664.74 102.49 668.39 115.6C670.11 121.79 669.55 129.62 670.9 136.06C672.93 145.76 680.11 158.82 686.67 166.24C695.87 176.64 708.22 179.88 706.7 196.28C706.04 203.41 701.65 203.3 695.4 202.44C662.4 197.91 644.3 181.27 630.51 152.45C628.34 147.91 624.85 133.73 620.17 132.83C523.2 133.24 426.27 133.36 329.3 133.77C254.74 134.08 175.69 138.28 101.42 134.85C89.73 134.31 76.35 132.54 64.8 130.5C41.63 126.41 14.58 119.44 0.02 99.8601V98.8601H0Z" fill="white"/>
<path d="M1019.47 0.0100098C1022.57 1.64001 1024.4 2.42001 1026.98 4.98001C1036.4 14.3 1052.16 44.09 1062.4 48.48C1075.34 54.03 1103.22 41.78 1118.19 40.23C1127.72 39.24 1130.73 38.94 1134.89 47.96C1140.59 60.33 1145.33 93.12 1153.9 100.86C1162.96 109.05 1194.41 108.56 1207.61 111.11C1218.44 113.21 1224.31 117.89 1221.91 129.87L1188.87 179.76C1186.21 179.78 1179.44 168.83 1177.36 166.29C1124.21 101.3 1053.61 62.94 968.49 58.93L969 26.98L1016.47 0.0100098H1019.47Z" fill="white"/>
<path d="M903.53 0.01C910.47 3.48 917.41 7.04 924.19 10.82C927.72 12.79 949.61 25.06 950.58 26.39C953.23 30.01 950.61 52.81 951.36 58.78C941.18 60.39 930.66 60.7 920.31 62.21C843.5 73.37 776.19 117.83 732.12 180.72C723.61 167.71 714.14 155.09 706.22 141.71C702.72 135.81 697.85 129.6 698.72 122.42C699.8 113.57 704.91 112.47 712.41 111.12C725.06 108.84 738.29 108.85 750.97 106.71C759.2 105.32 766.21 104.35 770.36 96.12C777.35 82.27 779.31 60.96 785.82 46.66C787.59 42.76 791.31 39.01 795.95 39.02C809.85 39.05 831.21 48.42 846.18 49.8C853.77 50.5 858.06 49.84 863.54 44.43C874.39 33.72 883.21 14.16 894 3.96C896.24 1.84 898.19 1.59 900.53 0H903.53V0.01Z" fill="white"/>
<path d="M1200.36 237.65C1158.76 228.75 1116.66 222.23 1074.37 217.25C1064.06 211.73 1055.85 203.12 1045.98 196.69C991.59 161.27 919.99 163.57 867.24 200.89C862.14 204.5 856.63 210.38 851.71 213.33C842.2 219.03 793.96 222.62 779.27 224.83C763.64 227.19 745.16 232.32 730 233.52C728.76 233.62 723.6 234.17 723.62 233.13C746.92 173.08 796.24 122.16 854.89 95.6701C988.75 35.2401 1150.17 99.9601 1200.38 237.63L1200.36 237.65ZM968.39 101.96L956.51 99.8601L962.64 144.65L974.36 145.66L980.48 125.83L982.54 146.74L994.39 146.69L1005.48 103.85L994.61 103.98C992.76 105.18 992.25 121.76 988.49 123.82L986 103.83L976.5 101.84C974.62 107.28 973.66 113.22 971.75 118.63C971.18 120.24 972.27 121.3 969.5 120.81L968.39 101.94V101.96ZM891.55 156.77C894.99 156.19 911.69 152.06 912.36 149.2L909.53 141.24L901.12 142.65L898.64 139.13L906.39 133.22C905.96 131.04 904.49 126.25 902.51 125.28C900.89 124.49 894.56 127.63 893.53 124.32C892.23 120.15 900.65 119.86 901.42 117.19L897.92 108.98L878.63 116.5L891.54 156.78L891.55 156.77ZM1016.51 153.72L1026.19 156.6L1027.96 155.8C1028.97 148.96 1041.56 121.03 1040.33 116.54C1039.45 113.36 1032.37 112.71 1029.5 111.84L1016.52 153.72H1016.51ZM1072.45 150.78L1075.29 131.49L1066.04 125.9L1044.58 163.13L1054.36 168.71L1064.43 151.79L1061.56 173.07L1071.35 178.69L1092.34 141.4L1082.52 135.87C1079.71 140.9 1077.22 147.44 1072.44 150.79L1072.45 150.78ZM853.44 127.93C851.6 126.85 845.26 131.9 843.65 133.47C842.71 136.54 850.44 145.08 850.42 146.3C850.4 147.85 847.25 149.58 845 147.86C843.08 146.39 839.3 139.41 838.55 136.81L828.73 143.44L851.16 179.67L860.63 174.16L852.56 157.79L857.4 156.89C862.74 165.71 865.37 175.62 875.41 164.13L853.43 127.93H853.44ZM808.08 160.79L790.61 177.25L797.23 183.59L803.56 181.18C809.93 185.99 816.83 196.62 823.03 200.78C823.96 201.41 824.63 202.08 825.87 201.61L833.55 194.23L812.02 172.73C810.97 170.62 814.08 168.9 813.45 166.48C813.01 164.79 809.24 162.42 808.08 160.8V160.79ZM1119.34 175.82C1119.9 182.78 1123.84 184.62 1129.88 186.72C1133.92 181.83 1132.12 175.52 1128.85 170.82C1114.01 149.48 1075.92 187.15 1096.94 202.7C1103.11 207.26 1108.67 206.37 1115.13 202.91C1129.14 195.41 1121.99 191.51 1113.78 182.81C1109.03 184.45 1108.04 189.18 1108.34 193.63L1102.36 193.07C1100.97 186.89 1112.62 174.8 1119.34 175.82Z" fill="white"/>
<path d="M745.61 467.32C780.13 460.03 814.85 453.44 849.96 449.35C863.24 455.38 873.74 465.67 886.87 472.47C933.07 496.41 990.55 495.23 1036.13 470.48C1042.46 467.04 1061.92 452.07 1066 451.39C1076.75 449.6 1099.93 454.7 1111.61 456.64C1127 459.2 1143.23 462.26 1158.41 465.8C1161.14 466.44 1174.97 469.11 1175.37 470.86C1143.54 521.85 1089.88 560.78 1031.88 577.06C930.71 605.45 820.29 569.88 757.19 486.19C755.35 483.75 744.35 468.8 745.61 467.31V467.32ZM833.58 475.29L842.92 481.18L848.59 474.79C848.64 473.91 848.05 473.4 847.61 472.75C846.77 471.51 835.53 461.24 834.54 460.78C833.44 460.27 832.65 460.02 831.58 460.78L804.95 491.25C804.33 492.41 804.89 492.9 805.49 493.79C808.73 498.61 816.27 502.63 820.07 507.23L826.46 498.91L819.59 492.77L824.06 488.52L830.93 493.2L837.51 485.78L831.63 481.19L833.58 475.29ZM1092.43 477.28C1087.17 469.89 1084.49 464.39 1075.95 472.31C1071.06 476.84 1071.18 484.08 1074.61 489.6C1080.06 498.38 1093.02 495.38 1094.33 497.35C1097.61 502.28 1086.82 502.98 1087.45 505.71C1087.65 506.55 1093.34 513.18 1094.9 513.21C1103.49 513.38 1110.5 499.46 1105.26 490.94C1099.67 481.87 1085.34 484.56 1084.45 481.78C1083.22 477.96 1090.12 477.2 1092.44 477.29L1092.43 477.28ZM873.55 497.26C875.44 488.18 868.78 487.68 862.56 484.28C860.78 491.43 863.06 500.56 859.75 506.94C857.17 511.93 843.12 519.35 842.59 521.79C842.15 523.82 850.1 527.78 852.08 528.19L860.53 522.22L860 532.2L870.05 538.17C872.37 538.04 871.34 529.78 871.55 527.72C871.91 524.18 872.43 516.74 873.77 513.96C876.35 508.63 886.49 504.33 890.52 499.74C890.92 497.75 890.07 498.52 889.25 498.04C887.98 497.29 880.73 493.62 880.03 493.62C877.54 493.63 876.22 497.54 873.54 497.26H873.55ZM1055.27 489.45C1053.93 488.66 1052.08 489.59 1050.73 490.06C1047.85 491.05 1036.43 496.69 1034.07 498.39C1033.14 499.06 1032.54 499.17 1032.61 500.56C1032.88 505.57 1038.38 510.86 1043.42 507.25L1057.99 536.24C1060.58 535.05 1067.23 532.97 1067.39 529.77C1067.68 524.06 1055.09 507.84 1054.6 502.58C1054.4 500.4 1058.2 499.42 1058.47 496.74C1058.6 495.4 1055.89 489.84 1055.26 489.47L1055.27 489.45ZM910.57 537.24C920.61 537.75 928.65 537.81 931.07 526.27C934.63 509.3 918.72 508.92 907.01 504.31L896.46 547.58L907.52 550.17L910.57 537.23V537.24ZM1030.46 547.17L1019.6 532.5C1029.53 508.78 1010.81 503.21 991.62 511.37L1000.49 554.18C1015.17 552.97 1011.4 548.67 1009.49 537.21L1018.63 550.08L1030.47 547.18L1030.46 547.17ZM951.5 557.17H972.49V547.18C969.08 547.22 964.85 547.84 962.58 544.58C963.26 539.24 967.22 540.01 971.49 540.2L971.38 530.32L963.5 529.21L963.48 524.22L973.4 523.15L972.47 513.25L952.43 513.68C949.14 527.68 950.69 542.73 951.49 557.18L951.5 557.17Z" fill="white"/>
<path d="M1919 98.8701C1906.13 117.1 1882.18 124.84 1861.04 129.32C1846.04 132.5 1833.61 133 1818.51 133.76C1747.07 137.38 1674.23 134 1602.71 133.76C1502.44 133.41 1402.19 133.51 1301.93 132.92C1291.44 133.3 1291.13 145.52 1287.5 153.45C1274.07 182.78 1256.58 196.52 1224.37 202.21C1220.9 202.82 1216.31 204.12 1213.33 201.23C1211.58 199.53 1211.89 184.85 1213.47 182.34C1214.55 180.61 1222.44 175.85 1224.83 173.72C1237.72 162.25 1244.76 147.86 1248.07 131.04C1250.75 117.43 1247.78 108.91 1262.98 102C1292.12 88.7401 1359.85 95.7601 1393.73 95.9101C1550.72 96.6001 1707.64 96.7001 1864.48 98.9101C1882.64 99.1601 1900.84 98.6301 1918.99 98.8801L1919 98.8701Z" fill="white"/>
<path d="M950.5 603.1V635.05C937.12 641.33 924.66 653.31 911.54 659.53C907.26 661.56 904.58 663.15 899.47 661.56C893.78 659.78 873.21 627.81 867.06 621.06C859.56 612.83 856.3 611.99 845.33 613.36C831.13 615.14 809.98 623.93 796.89 623.72C790.54 623.62 788.65 619.61 786.57 614.6C781.45 602.25 776.34 570.6 768.64 562.62C764.07 557.88 759.15 557.43 752.97 556.31C721.16 550.52 699.86 551.59 668.32 556.34C606.51 565.64 545.78 580.87 486.08 598.86C474.15 595.31 482.66 588.9 489.08 584.96C515.11 568.97 547.95 553.37 576.03 541.03C627.3 518.49 680.8 502.28 734.09 485.27C737.6 485.63 745.8 498.48 748.63 501.74C766.78 522.59 786.73 542 809.84 557.41C851.39 585.1 900.5 600.64 950.49 603.11L950.5 603.1Z" fill="white"/>
<path d="M1024.18 660.72C1021.86 662.59 1015.25 662.42 1012.42 661.56L973.7 636.85L973.49 603.1C1024.11 600.27 1074.18 583.84 1115.74 554.99C1143.54 535.69 1165.99 510.62 1187.09 484.44C1215.81 493.59 1244.44 503.68 1272.59 514.49C1320.7 532.96 1368.27 554.29 1412.94 579.97C1419.13 583.53 1428.21 588.07 1433.58 592.3C1440.06 597.41 1438.09 603.02 1429.85 602.04C1372.75 584.54 1315.55 569.35 1256.53 559.49C1222.75 553.85 1199.45 550.82 1165.02 557.3C1158.66 558.5 1153.62 560.65 1150.2 566.45C1142.95 578.74 1140.25 601.45 1134.18 615.34C1130.93 622.77 1128.56 624.83 1120.03 623.96C1106.37 622.57 1074.1 609.59 1062.88 614.01C1052.31 618.17 1033.7 651.91 1024.19 660.72H1024.18Z" fill="white"/>
<path d="M613.58 152.88C622.97 189.38 647.23 220.51 684.63 230.7C682.88 235.74 683.65 241.08 677.48 242.97C670.71 245.04 652.29 240.15 645.13 237.68C619.52 228.83 604.73 205.29 594.07 181.8C524.6 188.73 455.17 197.07 385.31 199.71C356.04 200.82 331 201.9 302.02 195.03C278.89 189.55 249.37 179.26 238.87 156.27L613.59 152.87L613.58 152.88Z" fill="white"/>
<path d="M1680.12 154.78C1665.81 186.26 1618.29 196.89 1586.66 199.7C1534.95 204.29 1473.89 196.4 1421.76 191.72C1389.19 188.8 1356.67 183.79 1323.98 182.7C1312.46 207.63 1298.89 229.26 1271.35 238.17C1264.84 240.28 1241.19 246.94 1236.59 241.42C1235.64 240.28 1233.61 231.58 1235.36 230.17C1237.27 228.62 1246.45 226.11 1249.71 224.54C1281.51 209.19 1294.11 184.65 1306 152.75L1680.13 154.79L1680.12 154.78Z" fill="white"/>
<path d="M954.5 228.67V247.64C932.86 249.53 910.81 248.5 889.04 249.65C852.08 251.6 812.94 256.19 776.38 261.91C613.32 287.42 455.61 347.42 320.26 441.34L320.73 444.91L360.67 500.94C360.89 502.39 349.19 513.9 347.13 514.09C345.07 514.28 334.96 500.14 332.99 497.58C327.74 490.75 290.85 441.49 290.81 437.83C290.8 436.72 291.47 435.94 292.31 435.33C413.15 349.06 551.4 288.61 696.6 256.11C775.61 238.42 857.02 228.95 937.95 227.63C943.62 227.54 948.9 228.27 954.48 228.67H954.5Z" fill="white"/>
<path d="M970.49 227.67C1205.3 231.41 1439.49 305.72 1627.96 444.83L1569.85 523.12C1567.26 521.62 1554.97 512.17 1555.32 509.93C1566.76 491.51 1583.17 474.3 1594.39 456.05C1595.49 454.26 1598.73 450.22 1597.73 448.34C1478.35 364.79 1341.62 303.04 1198.38 273.09C1123.63 257.46 1046.99 249.09 970.49 248.64V227.67Z" fill="white"/>
<path d="M954.5 403.4V422.87C953.87 423.86 953.12 424.16 952 424.37C946.24 425.42 936.43 424.05 929.97 424.33C839.74 428.17 750.45 443.89 665.11 473.26C574.55 504.42 490.35 550.82 411.26 604.12L355.91 527.86C358.6 525.24 368.17 513.38 371.81 515.69L416.27 575.91C481.95 532.98 551.05 494.93 624.42 466.56C729.52 425.92 841.42 404.36 954.5 403.4Z" fill="white"/>
<path d="M970.49 424.37V404.4C1015.93 404.24 1061.88 409.01 1106.6 416.7C1249.04 441.18 1382.05 501.15 1500.72 581.85L1545.19 523.66C1546.35 522.75 1546.83 523.54 1547.72 524.16C1549.35 525.29 1559.91 534.85 1560.08 535.85L1504.9 610.97C1426.56 554.59 1341.17 507.45 1249.87 475.28C1160.23 443.7 1065.84 426.08 970.5 424.38L970.49 424.37Z" fill="white"/>
<path d="M1636.14 210.7C1623.27 241.78 1588.46 252.11 1557.67 255.61C1476.53 256.26 1396.46 239.7 1315.82 232.65L1313.34 231.17L1333.89 200.88L1440.75 211.69L1539.65 218.73C1559.37 218.73 1578.96 219.22 1598.52 216.55C1611.1 214.83 1623.37 210.36 1636.14 210.71V210.7Z" fill="white"/>
<path d="M282.86 209.7C291.99 209.54 300.73 212.9 309.66 214.37C384.17 226.62 476.38 210.34 552.22 203.71C560.32 203 576.05 200.68 583.25 201.66C584.65 201.85 585.85 201.84 586.74 203.17L604.67 231.17L602.15 232.61C537.51 238.44 473.01 249.8 408.29 254.62C382.34 256.55 355.73 256.85 330.62 249.35C310.58 243.36 289.55 230.43 282.86 209.7Z" fill="white"/>
<path d="M564.7 335.51C564.99 343.96 564.32 352.51 564.72 360.96C565.81 384.41 567.99 410.53 570.72 433.85C571.63 441.63 570.92 456.58 579.7 458.34C580.14 460.4 578.68 460.65 577.4 461.51C574.84 463.24 551.9 474.53 550.72 473.29L550.69 465.83C537.9 451.41 524.31 436.84 510.76 422.85C506.83 418.79 500.95 412.11 496.75 408.89C495.75 408.12 495.48 406.95 493.75 407.4C494.29 415.54 495.68 423.63 496.91 431.69C499.07 445.87 501.65 470.88 506 483.51C507.39 487.56 510.91 489.05 512.67 492.78C509.71 495.19 486.13 509.66 484.75 508.24C485.96 500.92 483.42 499.21 478.76 494.75C458.2 475.08 432.34 452.36 410.25 434.38C405.53 430.54 400.86 425.92 394.79 424.35C394.38 422.85 395.19 422.7 395.77 421.85C397.47 419.38 416.72 406.55 420.05 405.17C421.65 404.51 423.02 404.16 424.76 404.39C424.62 408.08 424.31 411.69 427.22 414.42C443.22 427.97 457.91 443.09 473.73 456.82C474.76 457.72 480.96 462.95 481.74 462.29L468.73 389.92L462.75 382.43L494.72 367.44L496.72 376.93L547.69 430.34L541.58 363.07C540.43 356.18 539.79 353.94 533.73 349.97L564.69 335.5L564.7 335.51Z" fill="white"/>
<path d="M999.48 376.44C997.1 374.05 1011.72 352.89 1012.49 348.49C1027.79 369.29 1064.47 376.59 1088.49 371.01C1105.87 366.97 1107.88 354.2 1090.71 347.72C1064.59 337.86 999.58 342.44 1002.59 301.2C1005.57 260.45 1070.83 265.11 1098.19 273.35C1109.26 276.68 1118.75 282.53 1129.14 286.37C1133.26 287.89 1137.97 287.81 1141.4 290.11C1141.75 291.7 1121.44 314.16 1119.85 314.52C1117.45 315.06 1115.17 307 1113.43 305.06C1100.73 290.82 1063.23 284.75 1045.41 289.06C1028.38 293.18 1028.61 304.81 1044.46 311.05C1071.57 321.73 1138.26 317.61 1131.16 362.75C1124.74 403.54 1050.04 392.69 1022.94 383.48C1015.01 380.78 1008.27 375.23 999.47 376.47L999.48 376.44Z" fill="white"/>
<path d="M758.6 284.59C759.09 287.74 755.89 289.26 755.61 292.16C755.39 294.37 756.67 299 757.08 301.59C761.87 331.51 770.49 361.62 776.06 391.46L781.59 401.41L748.21 407.35L746.73 405.08L748.47 401.75L747.13 399.42L660.66 344.52L682.62 417.92C683.06 419.24 690.46 421.58 688.64 423.38L657.66 432.37L658.25 423.37C650 396.95 642.48 370.22 633.68 343.99C632.03 339.09 628.86 326.68 626.54 323.17C624.54 320.14 621.11 320.78 619.67 317.57L658.64 307.57L660.11 315.6L744.59 369.48L728.65 296.05C726.94 293.9 722.39 294.02 722.62 290.6L758.59 284.61L758.6 284.59Z" fill="white"/>
<path d="M894.53 344.99L892.03 343.49C886.95 343.95 862.59 343.88 860.47 347.16C859.24 349.07 859.57 353.77 855.56 353.48L852.66 324.65C856.78 322.14 856.32 326.42 858.25 327.58C863.5 330.76 894.75 326.72 902.99 326.48C909.15 326.3 915.37 326.69 921.53 326.53C922.26 331.7 916.15 329.37 915.47 334.95C914.79 340.53 915.19 357.32 917 362.51C917.81 364.84 921.11 367.1 920.42 369.77C899.09 387.44 863.37 393.79 836.21 391.3C772.5 385.46 755.91 300.35 816.61 275.12C835.67 267.2 853.73 266.68 874.06 268.62C886.59 269.81 898.94 274.18 911.55 271.62C909.46 276.1 901.07 301.19 897.98 302.49C897.39 302.74 895.55 302.99 895.49 301.97C894.41 292.44 884.61 290.63 876.61 289.05C840.78 282 795.78 295.83 805.89 340.73C815.19 382.05 865.81 377.76 895.15 362.45C895.84 361.08 894.56 360.33 894.56 359.98V345L894.53 344.99Z" fill="white"/>
<path d="M1403.28 441.35L1385.41 479.03C1384.85 482.91 1392.34 484.4 1387.78 488.25L1352.31 469.8C1355.33 466.43 1360.98 470.51 1363.13 465.65C1376.2 436.47 1392.22 407.58 1404.44 378.11C1405.24 376.18 1407.46 371.67 1407.3 369.99C1406.99 366.77 1401.26 365.07 1401.27 361.47C1402.97 360.03 1414.18 365.51 1416.62 366.6C1437.56 375.92 1464.83 389.83 1484.15 401.98C1504.8 414.98 1523.19 435.1 1506.65 460.25C1494.45 478.81 1476.13 475.79 1458.27 468.77C1439.15 461.26 1422.18 449.28 1403.28 441.34V441.35ZM1426.42 396.55L1414.7 422.38C1422.45 426.99 1430.3 431.61 1438.23 435.88C1447.29 440.76 1467.79 452.99 1477.53 450.13C1481.71 448.9 1486.49 439.14 1486.3 434.87C1485.93 426.55 1469.61 418.09 1462.92 414.22C1454.14 409.14 1442.04 402.34 1432.94 398.24C1431.54 397.61 1427.66 395.83 1426.43 396.55H1426.42Z" fill="white"/>
<path d="M1296.1 325.8C1345.71 320.16 1396.08 362.55 1374.77 414.37C1352.63 468.22 1270.12 459.2 1249.87 408.38C1235.69 372.79 1256.7 330.28 1296.11 325.8H1296.1ZM1301.1 347.77C1269.82 351.5 1258.04 389.31 1278.31 412.92C1315.85 456.64 1383.14 407.59 1346.28 363.99C1334.93 350.57 1318.31 345.72 1301.1 347.77Z" fill="white"/>
<path d="M222.84 154.82C225.55 171.48 237.95 183.05 249.87 193.71L207.38 197.7C159.68 199.27 93.27 201.28 68.96 151.29L106.41 154.82H222.85H222.84Z" fill="white"/>
<path d="M1668.13 193.71C1674.82 188.4 1681.56 182.72 1686.54 175.66C1691.07 169.24 1692.88 162.5 1696.75 155.91L1850.01 152.28C1833.16 183.63 1798.97 194.05 1765.62 197.76C1733.02 197.91 1700.43 198.24 1668.13 193.71Z" fill="white"/>
<path d="M609.68 248.65L463.54 300.84C442.55 306.36 420.76 304.83 399.58 301.27C377.38 297.53 354.82 290.85 339.83 273.09C338.84 270.73 345.19 271.5 346.36 271.56C358.93 272.29 371.67 274.03 384.29 274.67C459.65 268.23 534.56 257.27 609.68 248.65Z" fill="white"/>
<path d="M1580.18 270.61C1556.23 303.25 1509.92 304.92 1472.75 304.54L1312.33 249.64L1520.73 273.58C1540.7 273.74 1560.52 274.25 1580.19 270.6L1580.18 270.61Z" fill="white"/>
<path d="M1268.33 302.56C1267.33 306.67 1260.36 333.43 1257.84 333.49C1255.14 331.58 1255.74 328.42 1252.63 326.73C1249.79 325.19 1219.86 315.53 1218.42 316.57L1195.55 407.64L1198.36 414.38L1165.39 407.39L1170.9 398.43L1189.94 310.5C1188.9 308.98 1157.36 302.12 1154.13 302.75C1151.66 303.23 1149.41 306.11 1146.4 305.54L1154.4 273.6C1158.31 274.47 1159.3 279.34 1162.46 281.01C1164.4 282.04 1168.53 282.77 1170.96 283.5C1199.28 292.04 1229.66 296.98 1258.16 305.35L1268.33 302.56Z" fill="white"/>
<path d="M1677.13 329.52C1659.37 359.32 1616.9 367.03 1584.64 364.49C1561.22 362.65 1520.59 344.44 1500.7 331.53C1498.92 330.37 1488.91 324.81 1491.23 322.53C1508.34 322.84 1525.89 318.46 1542.71 317.54C1567.42 316.19 1594.35 327.06 1619.67 329.51C1638.81 331.36 1657.97 330.27 1677.13 329.53V329.52Z" fill="white"/>
<path d="M357.57 317.79C371.67 316.02 402.06 319.77 417.28 321.53C419.14 321.75 427.77 322.67 427.76 324.02C413.17 334.99 395.65 343.97 378.77 350.95C346.28 364.38 320.09 369.14 285.43 359.39C267.36 354.31 252.91 346.71 241.9 331.01C242.83 329.56 243.82 329.63 245.32 329.47C264.42 327.39 286.2 330.58 306.33 328.51C323.93 326.7 341.14 319.85 357.57 317.79Z" fill="white"/>
<path d="M1789.07 212.7C1755.71 269.92 1679.72 257.03 1624.16 251.62C1636.8 239.91 1645.39 226.74 1653.8 211.85C1698.72 213.07 1744.38 219.98 1789.07 212.7Z" fill="white"/>
<path d="M265.7 211.85C272.02 227.33 282.16 240.83 294.84 251.62L246.41 256.66C208.65 257.49 163.93 256.54 137.96 225.14C136.06 222.84 131.35 216.86 130.92 214.19C130.64 212.47 130.81 212.62 132.22 212.88C173.57 220.49 212.29 213.46 253.38 211.7C257.46 211.53 261.64 211.62 265.7 211.85Z" fill="white"/>
<path d="M1718.1 274.6C1718.83 275.23 1713.83 281.18 1713.08 282.06C1685.5 314.2 1627.09 311.73 1588.81 306.41C1586.64 306.11 1573.17 304.51 1573.2 303.06C1585.07 292.74 1592.62 279.94 1600.75 266.78L1676.63 274.59L1718.09 274.61L1718.1 274.6Z" fill="white"/>
<path d="M344.82 303.54C337.03 304.98 329.08 306.48 321.21 307.42C283.36 311.94 231.87 312.42 204.87 281.11C204.1 280.22 199.07 274.33 199.9 273.6C239.08 277.19 278.41 271.72 317.23 266.83C319.14 267.18 326.29 281.52 328.42 284.49C333.35 291.36 340.32 296.35 344.82 303.54Z" fill="white"/>
<path d="M1041.45 447.35L1024.14 459.49C983.28 482.43 927.52 480.77 888.23 455.14C886.17 453.8 878.57 448.85 878.54 446.85L913.99 443.3H990.04L1041.46 447.35H1041.45Z" fill="white"/>
<path d="M607.68 320.53C609.04 325.68 603.54 324.44 603.9 329.74C604.33 336.03 611.29 352.84 613.66 359.98C621.53 383.68 630.29 407.14 638.59 430.68C640.59 433.74 648.26 430.29 645.04 435.43L611.17 449.32C607.85 445.48 614.14 443.25 613.27 439.32C602.06 408.85 593.56 377.18 581.71 346.96C580.84 344.74 578.84 338.54 577.27 337.42C573.02 334.39 561.18 336.52 578.45 329.76C587.9 326.06 597.93 323.34 607.68 320.53Z" fill="white"/>
<path d="M1042.46 212.68C1033.32 211.63 1024.16 212 1014.98 211.68C975.89 210.31 937.2 209.5 897.99 210.65C891.87 210.83 885.03 212.63 878.54 211.68C907.38 186.61 952.81 181.27 989.52 188.19C1008.23 191.72 1028.75 199.41 1042.45 212.68H1042.46Z" fill="white"/>
<path d="M957.22 302.78C974.3 299.25 988.85 317.37 976.74 332.26C965.51 346.08 939.44 337.08 942.57 317.09C943.46 311.44 951.76 303.91 957.22 302.78Z" fill="white"/>
<path d="M1010.24 519.48C1011.83 521.31 1011.05 526.85 1007.97 527.19C1006.44 527.08 1005.31 519.75 1005.48 518.23C1005.89 517.82 1009.55 518.69 1010.24 519.48Z" fill="white"/>
<path d="M913.53 526.21C914.32 524.17 914.4 516.71 918.01 518.24C921.62 519.77 918.32 528.24 913.53 526.21Z" fill="white"/>
</svg>
