<svg width="2691" height="769" viewBox="0 0 2691 769" fill="none" xmlns="http://www.w3.org/2000/svg">
<path fill-rule="evenodd" clip-rule="evenodd" d="M2314.86 675.574C2242.92 734.662 2166.51 763.257 2123.7 763.257C2071.13 763.392 2054.06 724.498 2059.08 688.178C2032.93 712.301 1957.87 763.799 1896.1 763.934C1842.85 763.934 1806 729.241 1800.18 678.692C1729.46 736.559 1652.64 764.477 1601.3 764.477C1539.79 764.477 1507.95 718.399 1537.35 661.751C1554.42 628.955 1571.49 596.294 1588.56 563.498C1600.08 541.544 1594.93 519.86 1571.63 519.86C1491.83 519.86 1410.41 664.868 1378.03 728.157C1373.42 737.237 1368.82 746.181 1364.21 755.261C1312.05 755.261 1259.89 755.261 1207.87 755.261C1223.72 723.956 1239.57 692.65 1255.56 661.209C1180.5 731.138 1093.12 764.477 1036.76 764.341C977.013 764.341 942.737 719.89 968.207 665.952C914.287 713.114 832.323 764.07 733.288 763.799C657.962 763.663 582.366 737.643 509.343 705.931C419.521 743.742 333.628 762.444 256.676 762.037C120.927 761.495 3.33256 722.058 0.0810855 659.312C-3.30587 588.705 99.6574 548.049 262.908 548.32C346.905 548.455 427.65 567.835 505.55 591.416C595.236 510.509 686.277 402.228 780.028 303.568C953.575 121.698 1208.41 -0.135408 1498.47 0.000112945C1835.67 0.271156 2053.79 96.8979 2056.1 222.391C2057.18 294.488 1986.19 356.828 1859.25 361.571C1857.89 353.847 1856.54 346.122 1855.32 338.397C1882.01 326.065 1914.66 304.246 1913.98 235.672C1912.9 146.499 1803.97 38.2172 1520.28 37.9461C1300.81 37.8106 1167.09 126.713 963.872 360.487C861.857 478.12 752.391 570.003 644.956 635.867C714.05 657.144 780.57 673.948 844.922 673.948C940.163 674.084 997.606 609.576 1021.04 565.938C1041.91 527.043 1062.77 488.013 1083.91 449.118H1241.47C1203.53 519.183 1165.73 589.247 1128.48 659.312C1118.18 678.556 1121.57 693.734 1143.11 693.734C1179.15 693.734 1267.61 637.086 1318.15 539.104C1333.59 509.154 1349.04 479.068 1364.62 449.118C1417.18 449.118 1469.75 449.118 1522.31 449.118C1508.63 475.68 1494.95 502.107 1481.13 528.534C1554.42 475.138 1614.3 439.903 1679.47 439.903C1754.66 439.903 1779.45 499.532 1751 553.876C1732.57 588.976 1714.15 624.076 1695.72 659.176C1685.43 678.691 1688.14 693.734 1709.68 693.734C1729.19 693.734 1764.41 677.065 1800.72 646.302C1802.35 634.511 1805.46 622.315 1810.07 609.711C1837.43 537.343 1912.9 430.958 2041.19 430.958C2108.66 430.958 2139.14 462.399 2146.32 489.368C2180.33 424.86 2213.79 360.487 2246.58 295.979C2297.52 295.979 2348.32 295.979 2399.26 296.114C2338.16 416.593 2273.94 537.207 2207.97 658.092C2197.4 677.472 2199.57 692.515 2221.24 692.515C2241.02 692.515 2277.06 675.439 2314.45 644.133C2315.27 637.628 2316.48 631.259 2318.38 625.025C2352.12 505.495 2471.2 432.856 2589.2 432.856C2648.27 432.856 2706.12 462.535 2687.42 523.655C2664.39 597.785 2513.88 621.908 2466.87 629.633C2455.48 675.439 2483.39 711.894 2535.42 711.623C2587.17 711.352 2634.18 691.837 2685.93 667.308C2685.66 676.659 2685.39 686.01 2684.98 695.361C2621.58 735.068 2525.26 767.729 2450.88 768.136C2360.51 768.542 2321.9 724.227 2314.72 675.71M2088.61 478.526C2032.12 478.526 1969.39 586.808 1958.28 631.259C1951.37 659.041 1952.18 690.617 1983.61 690.482C2055.82 690.346 2116.65 561.736 2119.09 520.809C2120.45 499.668 2111.91 478.526 2088.61 478.526ZM415.05 662.7C335.254 625.161 261.012 591.687 196.524 591.416C148.43 591.416 122.147 616.894 123.366 645.218C124.992 685.197 172.951 717.044 255.051 717.451C309.513 717.722 362.349 696.987 415.05 662.7ZM2597.74 464.974C2540.02 464.974 2490.84 557.264 2474.05 600.496C2537.31 589.789 2596.38 554.012 2617.52 505.902C2621.58 496.551 2622.53 485.573 2618.87 477.578C2615.48 470.124 2608.44 464.974 2597.74 464.974ZM1148.53 328.369C1154.76 288.525 1195.4 256.271 1239.43 256.271C1283.33 256.271 1314.08 288.525 1307.85 328.369C1301.62 368.212 1260.98 400.466 1217.08 400.466C1173.19 400.466 1142.3 368.212 1148.53 328.369Z" fill="white"/>
</svg>
