<svg width="224" height="64" viewBox="0 0 224 64" fill="none" xmlns="http://www.w3.org/2000/svg">
<path d="M32.5456 64C29.1224 64 26.4291 63.5209 24.4658 62.5626C22.5529 61.6548 21.2188 60.2679 20.4637 58.4019C19.7086 56.5359 19.3059 54.2159 19.2555 51.4421C12.9629 50.6856 8.18045 48.3152 4.90827 44.331C1.63609 40.2963 0 34.4712 0 26.8558C0 17.8282 2.06399 11.3475 6.19197 7.41371C10.32 3.4799 16.3357 1.513 24.2393 1.513C32.1429 1.513 38.1587 3.4799 42.2866 7.41371C46.4146 11.3475 48.4786 17.8282 48.4786 26.8558C48.4786 34.3199 46.8929 40.0441 43.7214 44.0284C40.6002 48.0126 36.0443 50.4334 30.0537 51.2908C30.0537 52.9047 30.3306 54.0142 30.8843 54.6194C31.4884 55.275 32.4953 55.6028 33.9048 55.6028C35.4654 55.6028 37.0511 55.4011 38.6621 54.9976V63.2435C37.9069 63.4452 36.9001 63.6217 35.6416 63.7731C34.4334 63.9244 33.4014 64 32.5456 64ZM24.2393 41.3806C28.3169 41.3806 31.2871 40.2206 33.1497 37.9007C35.0627 35.5303 36.0192 31.8487 36.0192 26.8558C36.0192 21.409 35.0627 17.576 33.1497 15.357C31.2871 13.0875 28.3169 11.9527 24.2393 11.9527C20.1113 11.9527 17.0908 13.0875 15.1779 15.357C13.3153 17.576 12.3839 21.409 12.3839 26.8558C12.3839 31.8487 13.3153 35.5303 15.1779 37.9007C17.0908 40.2206 20.1113 41.3806 24.2393 41.3806Z" fill="white"/>
<path d="M73.3297 51.7447C66.4329 51.7447 61.3485 50.156 58.0763 46.9787C54.8041 43.751 53.168 39.1111 53.168 33.0591C53.168 27.0575 54.8041 22.4429 58.0763 19.2151C61.3988 15.9874 66.4833 14.3735 73.3297 14.3735C80.2264 14.3735 85.3109 15.9874 88.5831 19.2151C91.9056 22.4429 93.5669 27.0575 93.5669 33.0591C93.5669 39.1111 91.9308 43.751 88.6586 46.9787C85.3864 50.156 80.2768 51.7447 73.3297 51.7447ZM73.3297 42.2128C76.1488 42.2128 78.1624 41.5067 79.3706 40.0946C80.5788 38.6824 81.1829 36.3373 81.1829 33.0591C81.1829 29.7809 80.5788 27.4358 79.3706 26.0236C78.1624 24.6115 76.1488 23.9054 73.3297 23.9054C70.5609 23.9054 68.5724 24.6115 67.3642 26.0236C66.1561 27.4358 65.552 29.7809 65.552 33.0591C65.552 36.3373 66.1561 38.6824 67.3642 40.0946C68.5724 41.5067 70.5609 42.2128 73.3297 42.2128Z" fill="white"/>
<path d="M99.7346 50.9882V15.13H111.061L111.439 18.2317C112.899 17.223 114.736 16.3404 116.951 15.5839C119.166 14.777 121.532 14.3735 124.049 14.3735C128.681 14.3735 132.054 15.4831 134.168 17.7021C136.282 19.9212 137.34 23.3507 137.34 27.9905V50.9882H125.182V28.974C125.182 26.9567 124.754 25.5193 123.898 24.6619C123.043 23.8046 121.507 23.3759 119.292 23.3759C117.983 23.3759 116.649 23.6785 115.29 24.2837C113.931 24.8889 112.798 25.6454 111.892 26.5532V50.9882H99.7346Z" fill="white"/>
<path d="M159.228 51.7447C155.754 51.7447 152.784 51.1899 150.318 50.0804C147.851 48.9708 145.963 47.1552 144.654 44.6336C143.345 42.0615 142.691 38.632 142.691 34.3452C142.691 30.0079 143.446 26.3767 144.956 23.4515C146.466 20.476 148.53 18.2317 151.148 16.7187C153.816 15.1552 156.862 14.3735 160.285 14.3735C162.148 14.3735 163.809 14.5753 165.269 14.9787C166.779 15.3822 168.189 15.9874 169.498 16.7943V0H181.655V50.9882H171.159L170.479 47.9622C169.019 49.223 167.383 50.1812 165.571 50.8369C163.759 51.4421 161.644 51.7447 159.228 51.7447ZM162.701 42.8936C165.37 42.8936 167.635 41.9858 169.498 40.1702V25.6454C167.786 24.082 165.596 23.3002 162.928 23.3002C160.361 23.3002 158.397 24.2837 157.038 26.2506C155.729 28.1671 155.075 30.8905 155.075 34.4208C155.075 37.8503 155.704 40.1198 156.963 41.2293C158.271 42.3388 160.184 42.8936 162.701 42.8936Z" fill="white"/>
<path d="M200.138 51.7447C197.873 51.7447 195.759 51.3412 193.795 50.5343C191.882 49.7273 190.347 48.4917 189.189 46.8274C188.031 45.1127 187.452 42.9945 187.452 40.4728C187.452 36.7912 188.686 33.9165 191.152 31.8487C193.669 29.7305 197.42 28.6714 202.404 28.6714H212.371V27.8392C212.371 26.0236 211.767 24.7376 210.559 23.9811C209.351 23.1742 207.085 22.7707 203.763 22.7707C199.685 22.7707 195.683 23.4011 191.756 24.6619V16.7943C193.518 16.0883 195.658 15.5083 198.175 15.0544C200.742 14.6005 203.436 14.3735 206.255 14.3735C211.792 14.3735 216.122 15.5083 219.243 17.7778C222.414 20.0473 224 23.6533 224 28.5957V50.9882H213.353L212.749 47.9622C211.44 49.1726 209.753 50.1056 207.689 50.7612C205.676 51.4169 203.159 51.7447 200.138 51.7447ZM203.989 44.2553C205.902 44.2553 207.564 43.9275 208.973 43.2719C210.383 42.6162 211.515 41.7841 212.371 40.7754V35.7069H203.763C200.189 35.7069 198.401 37.1442 198.401 40.0189C198.401 41.3302 198.855 42.3641 199.761 43.1206C200.667 43.8771 202.076 44.2553 203.989 44.2553Z" fill="white"/>
</svg>
