<svg width="577" height="135" viewBox="0 0 577 135" fill="none" xmlns="http://www.w3.org/2000/svg">
<path fill-rule="evenodd" clip-rule="evenodd" d="M80.852 51.0364C89.8536 39.5453 83.1971 20.9235 83.1971 20.9235C89.8084 31.7335 87.8647 41.5255 85.4794 47.3622C87.7693 45.0326 89.8862 41.9509 91.4513 37.8589C97.4281 22.1111 82.0985 9.84771 93.2295 0C93.2295 0 80.852 0.455795 74.5365 14.7424C68.2211 29.0342 79.4148 31.2372 70.9825 54.4726C70.9825 54.4726 75.6903 54.1941 80.852 51.0364Z" fill="#FEFEFE"/>
<path fill-rule="evenodd" clip-rule="evenodd" d="M71.0793 79.5171C71.0793 79.5171 67.9416 83.0799 66.517 88.9976C68.1849 103.543 85.9474 111.975 85.9474 111.975C73.6877 109.045 68.2075 100.737 65.8223 94.8951C65.8223 98.1819 66.4869 101.876 68.2476 105.875C75.0521 121.281 94.485 119.009 93.5068 133.924C93.5068 133.924 101.947 124.762 96.3962 110.149C90.8557 95.5383 81.3951 101.978 71.0793 79.5171Z" fill="#FEFEFE"/>
<path fill-rule="evenodd" clip-rule="evenodd" d="M118.75 76.9748C104.592 70.6037 102.417 81.9075 79.39 73.3892C79.39 73.3892 79.6835 78.1421 82.8086 83.3584C94.1804 92.4439 112.628 85.7235 112.628 85.7235C101.935 92.3933 92.2391 90.4435 86.4554 88.0177C88.7503 90.3372 91.8052 92.4769 95.8558 94.0468C111.474 100.084 123.601 84.5941 133.345 95.8497C133.345 95.8497 132.911 83.3508 118.75 76.9748Z" fill="#FEFEFE"/>
<path fill-rule="evenodd" clip-rule="evenodd" d="M65.4334 40.317C65.4334 37.0328 64.7863 33.3332 63.008 29.3324C56.191 13.9189 36.7732 16.1953 37.7589 1.2959C37.7589 1.2959 29.3115 10.4422 34.867 25.0656C40.4175 39.6688 49.868 33.237 60.1839 55.6976C60.1839 55.6976 63.3215 52.1297 64.7462 46.2095C63.0682 31.6595 45.3083 23.2475 45.3083 23.2475C57.5654 26.1595 63.0456 34.4753 65.4334 40.317Z" fill="#FEFEFE"/>
<mask id="mask0_413_997" style="mask-type:luminance" maskUnits="userSpaceOnUse" x="0" y="68" width="54" height="33">
<path d="M0 68.146V100.93H53.8938V68.146H0H0Z" fill="white"/>
</mask>
<g mask="url(#mask0_413_997)">
<path fill-rule="evenodd" clip-rule="evenodd" d="M53.8938 73.4636C53.8938 73.4636 50.3574 70.2958 44.4884 68.855C30.0969 70.5516 21.7449 88.4643 21.7449 88.4643C24.6392 76.1072 32.8708 70.5642 38.6646 68.146C35.4141 68.1511 31.7422 68.8221 27.7769 70.6048C12.51 77.4746 14.7748 97.0915 -0.000488281 96.0989C-0.000488281 96.0989 9.06634 104.627 23.5457 99.0211C38.025 93.43 31.6444 83.8709 53.8938 73.4636Z" fill="#FEFEFE"/>
</g>
<path fill-rule="evenodd" clip-rule="evenodd" d="M14.6467 60.0068C28.8025 66.3879 30.9821 55.0816 54.0065 63.5924C54.0065 63.5924 53.7181 58.8394 50.588 53.6307C39.2137 44.5502 20.769 51.2606 20.769 51.2606C31.4711 44.5781 41.17 46.5431 46.9512 48.9639C44.6488 46.6494 41.5989 44.5021 37.5358 42.9398C21.9403 36.903 9.79603 52.3773 0.0469971 41.147C0.0469971 41.147 0.493442 53.6358 14.6467 60.0068Z" fill="#FEFEFE"/>
<path fill-rule="evenodd" clip-rule="evenodd" d="M50.3739 83.9623C41.3823 95.4508 48.0188 114.078 48.0188 114.078C41.42 103.273 43.3487 93.4833 45.7515 87.6365C43.4591 89.9762 41.3347 93.0503 39.7847 97.1398C33.8154 112.9 49.1399 125.166 38.0039 135.001C38.0039 135.001 50.3865 134.553 56.6868 120.256C63.0098 105.975 51.8086 103.769 60.2584 80.521C60.2584 80.521 55.5482 80.8097 50.3739 83.9623Z" fill="#FEFEFE"/>
<path fill-rule="evenodd" clip-rule="evenodd" d="M88.6778 66.8679C103.094 65.1714 111.434 47.246 111.434 47.246C108.542 59.6056 100.3 65.1511 94.5267 67.577C97.7722 67.5567 101.447 66.8882 105.394 65.1081C120.646 58.2256 118.411 38.6289 133.169 39.6215C133.169 39.6215 124.1 31.0905 109.631 36.6994C95.1613 42.2879 101.539 51.8444 79.2899 62.2467C79.2899 62.2467 82.8213 65.417 88.6778 66.8679Z" fill="#FEFEFE"/>
<path fill-rule="evenodd" clip-rule="evenodd" d="M286.622 90.3594H269.321V51.4219H287.199C287.199 51.4219 306.754 52.2828 306.754 70.6058C306.754 88.9212 286.622 90.3594 286.622 90.3594ZM284.312 43.7189H267.578C262.491 43.7189 261.621 50.0114 261.621 50.0114V91.228C261.621 96.6697 269.007 98.0978 269.007 98.0978H286.002C286.002 98.0978 316.348 97.5332 314.364 69.4714C312.378 41.4298 284.312 43.7189 284.312 43.7189Z" fill="#FEFEFE"/>
<path fill-rule="evenodd" clip-rule="evenodd" d="M210.445 48.8676L189.75 90.0765L169.056 48.8676C169.056 48.8676 167.634 43.7095 158.274 43.7095L183.227 93.7963C183.227 93.7963 184.629 97.8023 189.75 97.8023C194.854 97.8023 196.271 93.7963 196.271 93.7963L221.207 43.7095C211.864 43.7095 210.445 48.8676 210.445 48.8676Z" fill="#FEFEFE"/>
<path fill-rule="evenodd" clip-rule="evenodd" d="M470.081 51.0203H485.077V93.2725C485.077 98.5218 493.176 99.4004 493.176 99.4004V51.3064H507.603C513.667 51.3064 513.963 44.0264 513.963 44.0264H464.31C464.31 51.3064 470.081 51.0203 470.081 51.0203Z" fill="#FEFEFE"/>
<path fill-rule="evenodd" clip-rule="evenodd" d="M236.075 43.5571V93.5959C236.075 98.8426 244.166 99.7212 244.166 99.7212V49.6876C244.166 44.4434 236.075 43.5571 236.075 43.5571Z" fill="#FEFEFE"/>
<path fill-rule="evenodd" clip-rule="evenodd" d="M350.831 43.7114C345.734 43.7114 344.315 47.7072 344.315 47.7072L319.382 97.8017C328.729 97.8017 330.154 92.6487 330.154 92.6487L334.558 83.8543H355.619C359.597 83.8543 361.011 76.7034 361.011 76.7034H338.155L350.831 51.4397L371.548 92.6487C371.548 92.6487 372.95 97.8017 382.305 97.8017L357.362 47.7072C357.362 47.7072 355.932 43.7114 350.831 43.7114Z" fill="#FEFEFE"/>
<path fill-rule="evenodd" clip-rule="evenodd" d="M547.791 47.7072C547.791 47.7072 546.377 43.7114 541.293 43.7114C536.196 43.7114 534.762 47.7072 534.762 47.7072L509.818 97.8042C519.171 97.8042 520.596 92.6487 520.596 92.6487L525.028 83.8543H544.325C548.3 83.8543 549.718 76.7059 549.718 76.7059H528.609L541.293 51.4422L561.992 92.6487C561.992 92.6487 563.399 97.8042 572.742 97.8042L547.791 47.7072Z" fill="#FEFEFE"/>
<path fill-rule="evenodd" clip-rule="evenodd" d="M440.033 50.0113V88.0652L410.53 48.8617C410.53 48.8617 407.136 43.7112 403.452 43.7112C398.355 43.7112 397.508 50.5735 397.508 50.5735V98.3763C404.879 98.3763 405.162 92.6484 405.162 92.6484V54.0173C405.162 54.0173 429.524 87.2194 433.497 92.9371C437.464 98.6599 440.595 98.3763 440.595 98.3763C446.559 98.3763 447.394 92.6484 447.394 92.6484V43.4175C440.865 43.4175 440.033 50.0113 440.033 50.0113Z" fill="#FEFEFE"/>
<path fill-rule="evenodd" clip-rule="evenodd" d="M569.019 49.549H570.883C571.279 49.549 571.588 49.5034 571.816 49.4199C572.039 49.3338 572.207 49.1996 572.328 49.0122C572.445 48.8273 572.501 48.6248 572.501 48.4019C572.501 48.0829 572.388 47.8195 572.16 47.6119C571.936 47.4017 571.58 47.3004 571.094 47.3004H569.019V49.549ZM568.144 53.3422V46.5509H571.059C571.64 46.5509 572.089 46.6066 572.395 46.7357C572.696 46.8548 572.942 47.0725 573.125 47.3789C573.306 47.6929 573.394 48.0272 573.394 48.4019C573.394 48.883 573.241 49.2933 572.942 49.6224C572.641 49.9542 572.177 50.1618 571.548 50.253C571.776 50.3669 571.951 50.4809 572.074 50.5923C572.32 50.8303 572.566 51.1316 572.789 51.4937L573.935 53.3422H572.839L571.974 51.9267C571.716 51.5241 571.51 51.2101 571.344 50.9898C571.179 50.7746 571.033 50.6252 570.906 50.5366C570.77 50.453 570.642 50.3948 570.507 50.3568C570.406 50.3365 570.246 50.3264 570.023 50.3264H569.019V53.3422H568.144ZM570.507 44.2567C567.505 44.2567 565.242 46.7965 565.242 49.9061C565.242 53.0612 567.505 55.563 570.582 55.563C573.587 55.601 575.814 53.0612 575.814 49.9061C575.814 46.7965 573.587 44.2567 570.542 44.2567H570.507ZM570.577 43.5654C574.088 43.5654 576.825 46.3863 576.825 49.9061C576.825 53.5043 574.088 56.2872 570.539 56.2872C567.028 56.2872 564.221 53.5043 564.221 49.9061C564.221 46.3863 567.028 43.5654 570.539 43.5654H570.577Z" fill="#FEFEFE"/>
<path fill-rule="evenodd" clip-rule="evenodd" d="M210.263 48.2304L189.438 89.7128L168.598 48.2304C168.598 48.2304 168.425 47.5846 167.783 46.7617L165.631 42.2822H139.677C134.545 42.2822 133.692 50.3321 133.692 50.3321H161.384L182.871 93.4528C182.871 93.4528 184.291 97.479 189.438 97.479C194.579 97.479 195.999 93.4528 195.999 93.4528L221.09 43.0419C211.7 43.0419 210.263 48.2304 210.263 48.2304Z" fill="#FEFEFE"/>
</svg>
